# xmcd CD database file
# Generated: Wed Jul 10 03:58:33 2002 by KSCD
# 
# Track frame offsets:
#       150
#       875
#       13791
#       22089
#       38121
#       47935
#       54753
#       59303
#       72203
#       80807
#       87728
#       92427
#       103025
#       110081
#       123071
#       131548
#       140416
#       148912
#       161786
#       170536
#       183489
#       192075
#       204995
#       213334
#       227314
#       236224
#       249267
#
# Disc length: 3430 seconds
#
# Revision: 1
# Processed by: cddbd v1.4PL0 Copyright (c) Steve Scherf et al.
# Submitted via: Kscd 1.3.3
#
DISCID=740d641b
DTITLE=Steve Kaufman - 4 Hour Bluegrass Banjo Workout CD 2
DYEAR=1900
DGENRE=
TTITLE0=Intro
TTITLE1=Dixie Hoedown (S)
TTITLE2=Dixie Hoedown (F)
TTITLE3=Down Yonder (S)
TTITLE4=Down Yonder (F)
TTITLE5=The Eighth of January (S)
TTITLE6=The Eighth of January (F)
TTITLE7=Devil's Dream (S)
TTITLE8=Devil's Dream (F)
TTITLE9=Drowsy Maggie (S)
TTITLE10=Drowsy Maggie (F)
TTITLE11=Fire on the Mountain (S)
TTITLE12=Fire on the Mountain (F)
TTITLE13=Fisher's Hornpipe (S)
TTITLE14=Fisher's Hornpipe (F)
TTITLE15=Flop-Eared Mule (S)
TTITLE16=Flop-Eared Mule (F)
TTITLE17=Flowers of Edinborough (S)
TTITLE18=Flowers of Edinborough (F)
TTITLE19=Forked Deer (S)
TTITLE20=Forked Deer (F)
TTITLE21=The Gold Rush (S)
TTITLE22=The Gold Rush (F)
TTITLE23=The Girl I Left Behind Me (S)
TTITLE24=The Girl I Left Behind Me (F)
TTITLE25=Golden Slippers (S)
TTITLE26=Golden Slippers (F)
EXTD=
EXTT0=
EXTT1=
EXTT2=
EXTT3=
EXTT4=
EXTT5=
EXTT6=
EXTT7=
EXTT8=
EXTT9=
EXTT10=
EXTT11=
EXTT12=
EXTT13=
EXTT14=
EXTT15=
EXTT16=
EXTT17=
EXTT18=
EXTT19=
EXTT20=
EXTT21=
EXTT22=
EXTT23=
EXTT24=
EXTT25=
EXTT26=
PLAYORDER=
